<svg width="363.239990234375px" height="102.239990234375px" xmlns="http://www.w3.org/2000/svg" viewBox="68.3800048828125 23.8800048828125 363.239990234375 102.239990234375" style="background: rgb(255, 255, 255) none repeat scroll 0% 0%;" preserveAspectRatio="xMidYMid"><defs><linearGradient id="editing-gradow-gradient" x1="0.024471741852423234" x2="0.9755282581475768" y1="0.3454915028125263" y2="0.6545084971874737" gradientUnits="objectBoundingBox"><stop offset="0" stop-color="#0d2578"></stop><stop offset="1" stop-color="#00ffbb"></stop></linearGradient><filter id="editing-gradow-filter" x="-100%" y="-100%" width="300%" height="300%"><feFlood flood-color="#ffffff" result="flood"></feFlood><feComposite operator="in" in2="SourceAlpha" in="flood" result="shadow"></feComposite><feOffset dx="0.9" dy="0.9" in="SourceGraphic" result="offset-1"></feOffset><feOffset dx="-0.9" dy="-0.9" in="shadow" result="offset-2"></feOffset><feMerge><feMergeNode in="offset-2"></feMergeNode><feMergeNode in="offset-1"></feMergeNode></feMerge></filter></defs><g filter="url(#editing-gradow-filter)"><g transform="translate(122.26499938964844, 104.76499938964844)"><path d="M5.75 0L5.75-44.81L38.41-44.81L38.41-38.41L12.16-38.41L12.16-25.59L34.56-25.59L34.56-19.19L12.16-19.19L12.16 0L5.75 0ZM75.50-27.13L75.50-6.16L75.50-6.16Q75.50-4.88 75.02-3.75L75.02-3.75L75.02-3.75Q74.53-2.63 73.70-1.80L73.70-1.80L73.70-1.80Q72.88-0.97 71.77-0.48L71.77-0.48L71.77-0.48Q70.66 0 69.38 0L69.38 0L52.84 0L52.84 0Q51.59 0 50.47-0.48L50.47-0.48L50.47-0.48Q49.34-0.97 48.52-1.80L48.52-1.80L48.52-1.80Q47.69-2.63 47.20-3.75L47.20-3.75L47.20-3.75Q46.72-4.88 46.72-6.16L46.72-6.16L46.72-27.13L46.72-27.13Q46.72-28.41 47.20-29.53L47.20-29.53L47.20-29.53Q47.69-30.66 48.52-31.48L48.52-31.48L48.52-31.48Q49.34-32.31 50.47-32.80L50.47-32.80L50.47-32.80Q51.59-33.28 52.84-33.28L52.84-33.28L69.38-33.28L69.38-33.28Q70.66-33.28 71.77-32.80L71.77-32.80L71.77-32.80Q72.88-32.31 73.70-31.48L73.70-31.48L73.70-31.48Q74.53-30.66 75.02-29.53L75.02-29.53L75.02-29.53Q75.50-28.41 75.50-27.13L75.50-27.13ZM69.38-27.13L52.84-27.13L52.84-6.16L69.38-6.16L69.38-27.13ZM85.75-6.16L85.75-33.28L91.88-33.28L91.88-6.16L109.03-6.16L109.03-33.28L115.19-33.28L115.19 0L109.03 0L109.03-5.63L109.03-5.63Q108.94-4.47 108.41-3.44L108.41-3.44L108.41-3.44Q107.88-2.41 107.05-1.64L107.05-1.64L107.05-1.64Q106.22-0.88 105.16-0.44L105.16-0.44L105.16-0.44Q104.09 0 102.91 0L102.91 0L91.88 0L91.88 0Q90.63 0 89.50-0.48L89.50-0.48L89.50-0.48Q88.38-0.97 87.55-1.80L87.55-1.80L87.55-1.80Q86.72-2.63 86.23-3.75L86.23-3.75L86.23-3.75Q85.75-4.88 85.75-6.16L85.75-6.16ZM154.88-27.13L154.88 0L148.72 0L148.72-27.13L131.56-27.13L131.56 0L125.44 0L125.44-33.28L131.56-33.28L131.56-27.41L131.56-27.41Q131.63-28.63 132.13-29.70L132.13-29.70L132.13-29.70Q132.63-30.78 133.45-31.58L133.45-31.58L133.45-31.58Q134.28-32.38 135.38-32.83L135.38-32.83L135.38-32.83Q136.47-33.28 137.72-33.28L137.72-33.28L148.72-33.28L148.72-33.28Q150-33.28 151.13-32.80L151.13-32.80L151.13-32.80Q152.25-32.31 153.08-31.48L153.08-31.48L153.08-31.48Q153.91-30.66 154.39-29.53L154.39-29.53L154.39-29.53Q154.88-28.41 154.88-27.13L154.88-27.13ZM165.13-6.16L165.13-27.13L165.13-27.13Q165.13-28.41 165.61-29.53L165.61-29.53L165.61-29.53Q166.09-30.66 166.92-31.48L166.92-31.48L166.92-31.48Q167.75-32.31 168.88-32.80L168.88-32.80L168.88-32.80Q170-33.28 171.25-33.28L171.25-33.28L188.41-33.28L188.41-46.09L194.56-46.09L194.56 0L188.41 0L188.41-5.63L188.41-5.63Q188.31-4.47 187.78-3.44L187.78-3.44L187.78-3.44Q187.25-2.41 186.42-1.64L186.42-1.64L186.42-1.64Q185.59-0.88 184.53-0.44L184.53-0.44L184.53-0.44Q183.47 0 182.28 0L182.28 0L171.25 0L171.25 0Q170 0 168.88-0.48L168.88-0.48L168.88-0.48Q167.75-0.97 166.92-1.80L166.92-1.80L166.92-1.80Q166.09-2.63 165.61-3.75L165.61-3.75L165.61-3.75Q165.13-4.88 165.13-6.16L165.13-6.16ZM171.25-27.13L171.25-6.16L188.41-6.16L188.41-27.13L171.25-27.13ZM204.81-46.09L210.94-46.09L210.94 0L204.81 0L204.81-46.09ZM229.56 13.44L223.44 13.44L230.41-3L217.34-33.28L223.81-33.28L233.53-10.38L243.25-33.28L249.72-33.28L229.56 13.44Z" fill="url(#editing-gradow-gradient)"></path></g></g><style>text {
  font-size: 64px;
  font-family: Arial Black;
  dominant-baseline: central;
  text-anchor: middle;
}</style></svg>