<svg width="56" height="51" viewBox="0 0 56 51" fill="none" xmlns="http://www.w3.org/2000/svg">
<path d="M1.12206 49.9079L25.2642 2.83935L49.2377 26.8539L1.12206 49.9079Z" fill="#D84339" stroke="#0D0C0C" stroke-miterlimit="15.9925"/>
<path d="M28.8457 2L6.13281 47L37.3605 30.7525L50.1328 15.505L28.8457 2Z" fill="#F2F2F2" stroke="#0D0C0C"/>
<path d="M33.3506 1L10.6328 45L42.0635 29.7525L55.1328 14.505L33.3506 1Z" fill="#F2F2F2" stroke="#0D0C0C"/>
<path d="M50.1328 2L2.5 49L50.1328 27V2Z" fill="#94C6EA"/>
<path d="M2.5 49L2.14882 48.6441L0.112301 50.6536L2.70965 49.4539L2.5 49ZM50.1328 2H50.6328V0.804217L49.7816 1.64409L50.1328 2ZM50.1328 27L50.3425 27.4539L50.6328 27.3198V27H50.1328ZM2.85118 49.3559L50.484 2.35591L49.7816 1.64409L2.14882 48.6441L2.85118 49.3559ZM49.6328 2V27H50.6328V2H49.6328ZM49.9232 26.5461L2.29035 48.5461L2.70965 49.4539L50.3425 27.4539L49.9232 26.5461Z" fill="#0D0C0C"/>
<path d="M3.43454 48.7802L37.1385 15.2002L49.2247 26.8599L3.43454 48.7802Z" fill="#D84339" stroke="#0D0C0C"/>
</svg>
