<svg viewBox="0 0 200 200" xmlns="http://www.w3.org/2000/svg">
  <path fill="#08BDBA" d="M38,-60.3C51.8,-57.7,67.5,-52.9,72.9,-42.5C78.3,-32,73.3,-16,72.6,-0.4C71.9,15.2,75.4,30.3,70.7,42C66,53.7,53.2,61.8,40.1,65.5C26.9,69.2,13.5,68.4,-0.4,69.1C-14.3,69.8,-28.6,72.1,-40.4,67.6C-52.2,63.2,-61.4,52,-67.4,39.6C-73.4,27.2,-76.1,13.6,-75.9,0.1C-75.6,-13.3,-72.4,-26.7,-66.3,-38.8C-60.2,-50.9,-51.1,-61.8,-39.5,-65.7C-28,-69.6,-14,-66.5,-1,-64.8C12,-63.1,24.1,-62.8,38,-60.3Z" transform="translate(100 100)" />
</svg>