<?xml version="1.0" encoding="UTF-8"?>
<svg width="248px" height="64px" viewBox="0 0 248 64" version="1.1" xmlns="http://www.w3.org/2000/svg" xmlns:xlink="http://www.w3.org/1999/xlink">
    <title>title</title>
    <g id="Page-1" stroke="none" stroke-width="1" fill="none" fill-rule="evenodd">
        <g id="title" fill-rule="nonzero">
            <rect id="Rectangle" fill="#FFFFFF" x="0" y="0" width="248" height="64"></rect>
            <polygon id="Path" stroke="#0D0C0C" fill="#D84339" points="6.1221 55.9079 30.2642 8.8394 54.2377 32.8539"></polygon>
            <polygon id="Path" stroke="#0D0C0C" fill="#F2F2F2" points="33.8457 8 11.1328 53 42.3605 36.7525 55.1328 21.505"></polygon>
            <polygon id="Path" stroke="#0D0C0C" fill="#F2F2F2" points="38.3506 7 15.6328 51 47.0635 35.7525 60.1328 20.505"></polygon>
            <polygon id="Path" stroke="#0D0C0C" fill="#94C6EA" points="55.1328 8 5.1328 57 55.1328 33"></polygon>
            <polygon id="Path" stroke="#0D0C0C" fill="#D84339" points="7.492 55.2515 42.1361 21.1979 54.2249 32.8601"></polygon>
            <path d="M82.351,47 L74.373,47 L74.373,17.0176 L92.092,17.0176 L92.092,23.5186 L82.351,23.5186 L82.351,29.2402 L91.333,29.2402 L91.333,35.7412 L82.351,35.7412 L82.351,47 Z M118.731,35.3311 C118.731,39.1318 117.706,42.0986 115.655,44.2314 C113.618,46.3506 110.761,47.4102 107.083,47.4102 C103.556,47.4102 100.746,46.3232 98.654,44.1494 C96.576,41.9756 95.537,39.0361 95.537,35.3311 C95.537,31.5439 96.556,28.6045 98.593,26.5127 C100.644,24.4072 103.515,23.3545 107.206,23.3545 C109.489,23.3545 111.506,23.8398 113.256,24.8105 C115.006,25.7812 116.353,27.1758 117.296,28.9941 C118.253,30.7988 118.731,32.9111 118.731,35.3311 Z M103.679,35.3311 C103.679,37.3271 103.945,38.8516 104.479,39.9043 C105.012,40.9434 105.907,41.4629 107.165,41.4629 C108.409,41.4629 109.284,40.9434 109.79,39.9043 C110.31,38.8516 110.569,37.3271 110.569,35.3311 C110.569,33.3486 110.31,31.8516 109.79,30.8398 C109.271,29.8281 108.382,29.3223 107.124,29.3223 C105.894,29.3223 105.012,29.8281 104.479,30.8398 C103.945,31.8379 103.679,33.335 103.679,35.3311 Z M139.875,47 L138.87,44.1084 L138.398,44.1084 C137.729,45.1748 136.792,45.9951 135.589,46.5693 C134.399,47.1299 132.998,47.4102 131.385,47.4102 C128.828,47.4102 126.839,46.6719 125.417,45.1953 C123.995,43.7051 123.284,41.6064 123.284,38.8994 L123.284,23.7646 L131.303,23.7646 L131.303,36.459 C131.303,37.9766 131.515,39.125 131.938,39.9043 C132.376,40.6836 133.087,41.0732 134.071,41.0732 C135.452,41.0732 136.437,40.5332 137.024,39.4531 C137.612,38.3594 137.906,36.5205 137.906,33.9365 L137.906,23.7646 L145.925,23.7646 L145.925,47 L139.875,47 Z M166.125,47 L166.125,34.3262 C166.125,32.7812 165.899,31.6191 165.448,30.8398 C165.011,30.0469 164.3,29.6504 163.315,29.6504 C161.962,29.6504 160.984,30.1904 160.383,31.2705 C159.781,32.3506 159.48,34.2031 159.48,36.8281 L159.48,47 L151.462,47 L151.462,23.7646 L157.512,23.7646 L158.517,26.6357 L158.988,26.6357 C159.672,25.542 160.615,24.7217 161.818,24.1748 C163.035,23.6279 164.43,23.3545 166.002,23.3545 C168.572,23.3545 170.568,24.0996 171.99,25.5898 C173.426,27.0801 174.144,29.1787 174.144,31.8857 L174.144,47 L166.125,47 Z M186.817,47.4102 C185.163,47.4102 183.714,46.9385 182.47,45.9951 C181.239,45.0518 180.282,43.6641 179.599,41.832 C178.929,40 178.594,37.8604 178.594,35.4131 C178.594,31.6396 179.353,28.6865 180.87,26.5537 C182.388,24.4209 184.473,23.3545 187.125,23.3545 C188.424,23.3545 189.559,23.6143 190.529,24.1338 C191.514,24.6533 192.409,25.5283 193.216,26.7588 L193.38,26.7588 C193.12,24.9404 192.99,23.1221 192.99,21.3037 L192.99,15.0898 L201.07,15.0898 L201.07,47 L195.021,47 L193.298,44.0674 L192.99,44.0674 C191.609,46.2959 189.552,47.4102 186.817,47.4102 Z M190.099,41.0732 C191.384,41.0732 192.286,40.6699 192.806,39.8633 C193.339,39.0566 193.626,37.8125 193.667,36.1309 L193.667,35.4951 C193.667,33.4443 193.373,31.9883 192.785,31.127 C192.197,30.252 191.274,29.8145 190.017,29.8145 C188.964,29.8145 188.144,30.3135 187.556,31.3115 C186.981,32.2959 186.694,33.7041 186.694,35.5361 C186.694,37.3408 186.988,38.7148 187.576,39.6582 C188.164,40.6016 189.005,41.0732 190.099,41.0732 Z M214.646,47 L206.628,47 L206.628,15.0898 L214.646,15.0898 L214.646,47 Z M217.395,23.7646 L225.844,23.7646 L229.781,37.0947 C229.973,37.792 230.103,38.6328 230.171,39.6172 L230.335,39.6172 C230.444,38.6738 230.608,37.8467 230.827,37.1357 L234.867,23.7646 L243.05,23.7646 L233.862,48.4766 C232.687,51.6211 231.237,53.8428 229.515,55.1416 C227.806,56.4404 225.57,57.0898 222.809,57.0898 C221.742,57.0898 220.648,56.9736 219.527,56.7412 L219.527,50.4453 C220.252,50.6094 221.079,50.6914 222.009,50.6914 C222.72,50.6914 223.342,50.5547 223.875,50.2812 C224.408,50.0078 224.873,49.6182 225.27,49.1123 C225.666,48.6201 226.09,47.8066 226.541,46.6719 L217.395,23.7646 Z" id="Shape" fill="#000000"></path>
            <rect id="Rectangle" stroke="#0D0C0C" stroke-width="2" fill="#94C6EA" x="74" y="51" width="140" height="5"></rect>
        </g>
    </g>
</svg>